HIERARCHY
ROOT Hips
{
    OFFSET 0.000000 0.000000 0.000000
    CHANNELS 6 Xposition Yposition Zposition Zrotation Xrotation Yrotation
    JOINT Spine
    {
        OFFSET -0.000002 7.616785 0.000008
        CHANNELS 3 Zrotation Xrotation Yrotation
        JOINT Spine1
        {
            OFFSET -0.000000 20.671221 0.000009
            CHANNELS 3 Zrotation Xrotation Yrotation
            JOINT Neck
            {
                OFFSET 0.000004 22.542088 -0.000041
                CHANNELS 3 Zrotation Xrotation Yrotation
                JOINT Head
                {
                    OFFSET -0.000014 14.528515 1.902184
                    CHANNELS 3 Zrotation Xrotation Yrotation
                    End Site
                    {
                        OFFSET 0.000000 19.022141 0.000000
                    }
                }
            }
            JOINT LeftShoulder
            {
                OFFSET 3.797832 16.121201 -0.677286
                CHANNELS 3 Zrotation Xrotation Yrotation
                JOINT LeftArm
                {
                    OFFSET 11.576586 -0.000001 0.000010
                    CHANNELS 3 Zrotation Xrotation Yrotation
                    JOINT LeftForeArm
                    {
                        OFFSET 29.906433 0.000010 0.000015
                        CHANNELS 3 Zrotation Xrotation Yrotation
                        JOINT LeftHand
                        {
                            OFFSET 24.318340 0.000004 0.000012
                            CHANNELS 3 Zrotation Xrotation Yrotation
                            JOINT LeftHandThumb1
                            {
                                OFFSET 1.987814 -2.258876 3.162430
                                CHANNELS 3 Zrotation Xrotation Yrotation
                                JOINT LeftHandThumb2
                                {
                                    OFFSET 3.002310 -0.000014 0.000003
                                    CHANNELS 3 Zrotation Xrotation Yrotation
                                    JOINT LeftHandThumb3
                                    {
                                        OFFSET 2.566081 0.000002 0.000001
                                        CHANNELS 3 Zrotation Xrotation Yrotation
                                        End Site
                                        {
                                            OFFSET 2.440626 0.000000 0.000000
                                        }
                                    }
                                }
                            }
                            JOINT LeftHandIndex1
                            {
                                OFFSET 8.131948 0.000007 3.162437
                                CHANNELS 3 Zrotation Xrotation Yrotation
                                JOINT LeftHandIndex2
                                {
                                    OFFSET 4.517748 0.000002 0.000005
                                    CHANNELS 3 Zrotation Xrotation Yrotation
                                    JOINT LeftHandIndex3
                                    {
                                        OFFSET 2.258896 -0.000007 0.000004
                                        CHANNELS 3 Zrotation Xrotation Yrotation
                                        End Site
                                        {
                                            OFFSET 2.148437 0.000000 0.000000
                                        }
                                    }
                                }
                            }
                            JOINT LeftHandMiddle1
                            {
                                OFFSET 8.131986 0.000001 1.048123
                                CHANNELS 3 Zrotation Xrotation Yrotation
                                JOINT LeftHandMiddle2
                                {
                                    OFFSET 4.969536 -0.000004 0.000006
                                    CHANNELS 3 Zrotation Xrotation Yrotation
                                    JOINT LeftHandMiddle3
                                    {
                                        OFFSET 2.710640 0.000004 0.000004
                                        CHANNELS 3 Zrotation Xrotation Yrotation
                                        End Site
                                        {
                                            OFFSET 2.578118 0.000000 0.000000
                                        }
                                    }
                                }
                            }
                            JOINT LeftHandRing1
                            {
                                OFFSET 7.680207 -0.000001 -1.048118
                                CHANNELS 3 Zrotation Xrotation Yrotation
                                JOINT LeftHandRing2
                                {
                                    OFFSET 4.517748 0.000001 0.000006
                                    CHANNELS 3 Zrotation Xrotation Yrotation
                                    JOINT LeftHandRing3
                                    {
                                        OFFSET 2.258897 -0.000007 0.000002
                                        CHANNELS 3 Zrotation Xrotation Yrotation
                                        End Site
                                        {
                                            OFFSET 2.148437 0.000000 0.000000
                                        }
                                    }
                                }
                            }
                            JOINT LeftHandPinky1
                            {
                                OFFSET 7.228409 0.000003 -3.162426
                                CHANNELS 3 Zrotation Xrotation Yrotation
                                JOINT LeftHandPinky2
                                {
                                    OFFSET 3.614217 -0.000006 0.000003
                                    CHANNELS 3 Zrotation Xrotation Yrotation
                                    JOINT LeftHandPinky3
                                    {
                                        OFFSET 1.807108 -0.000003 0.000001
                                        CHANNELS 3 Zrotation Xrotation Yrotation
                                        End Site
                                        {
                                            OFFSET 1.718745 0.000000 0.000000
                                        }
                                    }
                                }
                            }
                        }
                    }
                }
            }
            JOINT RightShoulder
            {
                OFFSET -3.797831 16.121199 -0.677304
                CHANNELS 3 Zrotation Xrotation Yrotation
                JOINT RightArm
                {
                    OFFSET -11.576584 -0.000006 -0.000005
                    CHANNELS 3 Zrotation Xrotation Yrotation
                    JOINT RightForeArm
                    {
                        OFFSET -29.906404 0.000010 0.000003
                        CHANNELS 3 Zrotation Xrotation Yrotation
                        JOINT RightHand
                        {
                            OFFSET -24.318317 -0.000004 0.000009
                            CHANNELS 3 Zrotation Xrotation Yrotation
                            JOINT RightHandThumb1
                            {
                                OFFSET -1.987792 -2.258877 3.162436
                                CHANNELS 3 Zrotation Xrotation Yrotation
                                JOINT RightHandThumb2
                                {
                                    OFFSET -3.002298 -0.000002 0.000000
                                    CHANNELS 3 Zrotation Xrotation Yrotation
                                    JOINT RightHandThumb3
                                    {
                                        OFFSET -2.566110 -0.000011 0.000005
                                        CHANNELS 3 Zrotation Xrotation Yrotation
                                        End Site
                                        {
                                            OFFSET -2.440626 0.000000 0.000000
                                        }
                                    }
                                }
                            }
                            JOINT RightHandIndex1
                            {
                                OFFSET -8.131978 -0.000007 3.162437
                                CHANNELS 3 Zrotation Xrotation Yrotation
                                JOINT RightHandIndex2
                                {
                                    OFFSET -4.517740 0.000002 0.000004
                                    CHANNELS 3 Zrotation Xrotation Yrotation
                                    JOINT RightHandIndex3
                                    {
                                        OFFSET -2.258871 0.000007 0.000004
                                        CHANNELS 3 Zrotation Xrotation Yrotation
                                        End Site
                                        {
                                            OFFSET -2.148437 0.000000 0.000000
                                        }
                                    }
                                }
                            }
                            JOINT RightHandMiddle1
                            {
                                OFFSET -8.131976 -0.000006 1.048126
                                CHANNELS 3 Zrotation Xrotation Yrotation
                                JOINT RightHandMiddle2
                                {
                                    OFFSET -4.969550 -0.000010 -0.000000
                                    CHANNELS 3 Zrotation Xrotation Yrotation
                                    JOINT RightHandMiddle3
                                    {
                                        OFFSET -2.710635 0.000005 0.000005
                                        CHANNELS 3 Zrotation Xrotation Yrotation
                                        End Site
                                        {
                                            OFFSET -2.578118 0.000000 0.000000
                                        }
                                    }
                                }
                            }
                            JOINT RightHandRing1
                            {
                                OFFSET -7.680207 -0.000006 -1.048115
                                CHANNELS 3 Zrotation Xrotation Yrotation
                                JOINT RightHandRing2
                                {
                                    OFFSET -4.517740 0.000002 0.000005
                                    CHANNELS 3 Zrotation Xrotation Yrotation
                                    JOINT RightHandRing3
                                    {
                                        OFFSET -2.258871 0.000006 0.000005
                                        CHANNELS 3 Zrotation Xrotation Yrotation
                                        End Site
                                        {
                                            OFFSET -2.148437 0.000000 0.000000
                                        }
                                    }
                                }
                            }
                            JOINT RightHandPinky1
                            {
                                OFFSET -7.228440 -0.000004 -3.162426
                                CHANNELS 3 Zrotation Xrotation Yrotation
                                JOINT RightHandPinky2
                                {
                                    OFFSET -3.614208 -0.000007 -0.000001
                                    CHANNELS 3 Zrotation Xrotation Yrotation
                                    JOINT RightHandPinky3
                                    {
                                        OFFSET -1.807104 -0.000002 -0.000002
                                        CHANNELS 3 Zrotation Xrotation Yrotation
                                        End Site
                                        {
                                            OFFSET -1.718745 0.000000 0.000000
                                        }
                                    }
                                }
                            }
                        }
                    }
                }
            }
        }
    }
    JOINT LeftUpLeg
    {
        OFFSET 9.511074 0.000001 0.000000
        CHANNELS 3 Zrotation Xrotation Yrotation
        JOINT LeftLeg
        {
            OFFSET 0.000005 -43.875637 -0.000020
            CHANNELS 3 Zrotation Xrotation Yrotation
            JOINT LeftFoot
            {
                OFFSET 0.000005 -35.354160 -0.000016
                CHANNELS 3 Zrotation Xrotation Yrotation
                JOINT LeftToeBase
                {
                    OFFSET 0.000004 -6.182192 14.266604
                    CHANNELS 3 Zrotation Xrotation Yrotation
                    End Site
                    {
                        OFFSET 0.000000 0.000000 3.804428
                    }
                }
            }
        }
    }
    JOINT RightUpLeg
    {
        OFFSET -9.511076 -0.000001 -0.000000
        CHANNELS 3 Zrotation Xrotation Yrotation
        JOINT RightLeg
        {
            OFFSET -0.000004 -43.875637 0.000005
            CHANNELS 3 Zrotation Xrotation Yrotation
            JOINT RightFoot
            {
                OFFSET 0.000001 -35.354160 -0.000018
                CHANNELS 3 Zrotation Xrotation Yrotation
                JOINT RightToeBase
                {
                    OFFSET -0.000003 -6.182193 14.266583
                    CHANNELS 3 Zrotation Xrotation Yrotation
                    End Site
                    {
                        OFFSET 0.000000 0.000000 3.804428
                    }
                }
            }
        }
    }
}
MOTION
Frames:    4
Frame Time:    0.002778
8.830892    92.556450    610.421570    2.817705    -7.224730    -162.846115    -0.293338    4.696035    0.770870    -1.466686    4.694564    0.866922    3.624559    10.246596    -17.956337    3.624560    10.246594    -17.956335    3.437714    -3.550731    -2.843147    -30.484961    13.254667    -59.512539    -110.038826    -31.649429    -111.398468    60.299061    -53.872623    -23.615517    47.448212    38.866440    -34.355030    -34.999992    0.000004    -0.000001    -0.000000    0.000000    -0.000000    0.000005    10.000001    -0.000000    -0.000000    0.000000    -0.000000    -0.000000    0.000000    -0.000000    -0.000000    0.000000    -0.000000    -0.000000    0.000000    -0.000000    -0.000000    0.000000    -0.000000    -0.000000    0.000000    -0.000000    -0.000000    0.000000    -0.000000    -0.000000    0.000000    -0.000000    0.000006    -10.000000    0.000004    -0.000000    0.000000    -0.000000    -0.000000    0.000000    -0.000000    -5.545515    -1.970922    3.733539    38.648029    15.506954    41.677143    -0.598259    -3.245340    58.389484    -103.929207    -19.294386    -4.697155    -47.448215    38.866455    34.355038    34.999996    -0.000007    0.000002    -0.000000    0.000000    -0.000000    -0.000000    9.999992    0.000001    -0.000000    0.000000    -0.000000    -0.000000    0.000000    -0.000000    -0.000000    0.000000    -0.000000    -0.000000    0.000000    -0.000000    -0.000000    0.000000    -0.000000    -0.000000    0.000000    -0.000000    -0.000000    0.000000    -0.000000    -0.000000    0.000000    -0.000000    0.000005    -10.000000    0.000003    -0.000000    0.000000    -0.000000    -0.000000    0.000000    -0.000000    13.120596    -17.997112    -0.434399    0.000001    20.120104    0.000001    -12.959445    -11.547695    3.303414    0.000000    -0.604996    0.000001    -12.192418    -21.045034    -1.579847    0.000002    29.683453    -0.000003    11.019256    -12.003716    -13.703473    -0.000000    -3.073493    -0.000000    
8.858295    92.552711    610.481567    2.802106    -7.385828    -162.860184    -0.299153    4.663147    0.750937    -1.495762    4.661631    0.848205    3.536464    10.221862    -17.898571    3.536464    10.221862    -17.898573    3.364039    -3.755867    -3.098494    -30.401226    13.720383    -59.426838    -111.947777    -32.039368    -113.479881    59.610607    -53.697575    -24.155813    47.448204    38.866421    -34.355022    -34.999992    0.000019    -0.000003    -0.000000    0.000000    -0.000000    -0.000002    10.000001    -0.000002    -0.000000    0.000000    -0.000000    -0.000000    0.000000    -0.000000    -0.000000    0.000000    -0.000000    -0.000000    0.000000    -0.000000    -0.000000    0.000000    -0.000000    -0.000000    0.000000    -0.000000    -0.000000    0.000000    -0.000000    -0.000000    0.000000    -0.000000    -0.000002    -10.000001    -0.000000    -0.000000    0.000000    -0.000000    -0.000000    0.000000    -0.000000    -5.842323    -1.723974    3.380758    38.298588    15.799227    43.324310    -0.520259    -4.159577    55.859390    -103.948151    -19.511486    -4.761607    -47.448189    38.866421    34.355019    35.000008    0.000003    -0.000001    -0.000000    0.000000    -0.000000    -0.000006    9.999990    0.000002    -0.000000    0.000000    -0.000000    -0.000000    0.000000    -0.000000    -0.000000    0.000000    -0.000000    -0.000000    0.000000    -0.000000    -0.000000    0.000000    -0.000000    -0.000000    0.000000    -0.000000    -0.000000    0.000000    -0.000000    -0.000000    0.000000    -0.000000    -0.000004    -10.000007    0.000002    -0.000000    0.000000    -0.000000    -0.000000    0.000000    -0.000000    13.092534    -18.084858    -0.390359    0.000001    19.897532    -0.000001    -13.104722    -11.412971    3.317192    -0.000000    -0.647470    0.000003    -12.265853    -21.294188    -1.618059    -0.000001    29.782701    0.000000    11.015955    -11.975703    -13.691546    0.000000    -3.073429    0.000000    
8.894758    92.558083    610.582275    2.696621    -7.222876    -162.617126    -0.270265    4.485113    1.967387    -1.351324    4.483923    2.051916    3.892443    11.119627    -18.959965    3.892442    11.119629    -18.959969    4.121923    -2.585831    2.386555    -34.295662    10.541419    -55.249359    -101.705940    -39.386826    -104.501358    93.498970    -48.184261    3.600891    47.448200    38.866459    -34.355034    -34.999969    -0.000026    0.000004    -0.000000    0.000000    -0.000000    0.000002    9.999993    0.000002    -0.000000    0.000000    -0.000000    -0.000000    0.000000    -0.000000    -0.000000    0.000000    -0.000000    -0.000000    0.000000    -0.000000    -0.000000    0.000000    -0.000000    -0.000000    0.000000    -0.000000    -0.000000    0.000000    -0.000000    -0.000000    0.000000    -0.000000    -0.000002    -10.000001    0.000001    -0.000000    0.000000    -0.000000    -0.000000    0.000000    -0.000000    -6.151617    -0.853766    2.001883    38.390041    15.451759    43.407894    -0.442718    -5.175747    53.474480    -103.988411    -19.962355    -4.889216    -47.448212    38.866428    34.355038    35.000008    -0.000001    -0.000002    -0.000000    0.000000    -0.000000    -0.000003    9.999997    0.000001    -0.000000    0.000000    -0.000000    -0.000000    0.000000    -0.000000    -0.000000    0.000000    -0.000000    -0.000000    0.000000    -0.000000    -0.000000    0.000000    -0.000000    -0.000000    0.000000    -0.000000    -0.000000    0.000000    -0.000000    -0.000000    0.000000    -0.000000    -0.000005    -10.000004    -0.000001    -0.000000    0.000000    -0.000000    -0.000000    0.000000    -0.000000    12.975361    -18.095648    -0.485346    0.000001    19.926054    0.000002    -12.986765    -11.170679    3.170983    -0.000000    -0.667850    -0.000001    -12.365689    -21.177109    -1.691219    0.000000    29.929844    -0.000002    11.029385    -11.982684    -13.835478    0.000000    -3.078671    -0.000000    
8.890573    92.558586    610.608398    2.725574    -7.228806    -162.749741    -0.286139    4.566466    2.152704    -1.430695    4.565102    2.243817    4.075102    10.991751    -19.158640    4.075102    10.991746    -19.158636    3.662326    -2.212396    1.993959    -34.885563    9.865194    -55.484734    -81.833565    -42.151199    -91.051773    107.225983    -39.903515    12.110744    47.448196    38.866455    -34.355049    -34.999966    -0.000020    0.000028    -0.000000    0.000000    -0.000000    -0.000003    9.999998    -0.000001    -0.000000    0.000000    -0.000000    -0.000000    0.000000    -0.000000    -0.000000    0.000000    -0.000000    -0.000000    0.000000    -0.000000    -0.000000    0.000000    -0.000000    -0.000000    0.000000    -0.000000    -0.000000    0.000000    -0.000000    -0.000000    0.000000    -0.000000    0.000004    -9.999997    0.000001    -0.000000    0.000000    -0.000000    -0.000000    0.000000    -0.000000    -6.166595    -0.762517    1.819715    38.013210    15.434167    44.228790    -0.274736    -6.093893    51.602776    -104.020241    -20.310644    -4.990439    -47.448208    38.866428    34.355030    35.000008    -0.000003    0.000001    -0.000000    0.000000    -0.000000    -0.000003    10.000001    -0.000003    -0.000000    0.000000    -0.000000    -0.000000    0.000000    -0.000000    -0.000000    0.000000    -0.000000    -0.000000    0.000000    -0.000000    -0.000000    0.000000    -0.000000    -0.000000    0.000000    -0.000000    -0.000000    0.000000    -0.000000    -0.000000    0.000000    -0.000000    0.000001    -10.000004    0.000003    -0.000000    0.000000    -0.000000    -0.000000    0.000000    -0.000000    13.032670    -18.013750    -0.388010    0.000000    19.800446    -0.000000    -13.035579    -11.191071    3.221532    -0.000000    -0.690901    -0.000000    -12.320499    -21.239496    -1.626295    0.000000    29.890032    0.000003    11.056730    -11.900784    -13.764577    -0.000000    -3.059834    -0.000000    
